<svg width="46" height="48" viewBox="0 0 46 48" fill="none" xmlns="http://www.w3.org/2000/svg">
<mask id="mask0_29_124" style="mask-type:alpha" maskUnits="userSpaceOnUse" x="3" y="4" width="39" height="40">
<path d="M22.6414 20C23.5086 20 24.3674 19.8189 25.1686 19.4672C25.9698 19.1154 26.6978 18.5998 27.311 17.9497C27.9242 17.2997 28.4106 16.5281 28.7425 15.6788C29.0744 14.8295 29.2452 13.9193 29.2452 13C29.2452 12.0807 29.0744 11.1705 28.7425 10.3212C28.4106 9.47194 27.9242 8.70026 27.311 8.05025C26.6978 7.40024 25.9698 6.88463 25.1686 6.53284C24.3674 6.18106 23.5086 6 22.6414 6C20.89 6 19.2103 6.7375 17.9719 8.05025C16.7334 9.36301 16.0377 11.1435 16.0377 13C16.0377 14.8565 16.7334 16.637 17.9719 17.9497C19.2103 19.2625 20.89 20 22.6414 20ZM5.66034 40.8V42H39.6225V40.8C39.6225 36.32 39.6225 34.08 38.7999 32.368C38.0763 30.8628 36.9218 29.639 35.5018 28.872C33.8867 28 31.7735 28 27.5471 28H17.7358C13.5094 28 11.3962 28 9.78108 28.872C8.36106 29.639 7.20654 30.8628 6.48298 32.368C5.66034 34.08 5.66034 36.32 5.66034 40.8Z" fill="white" stroke="white" stroke-width="4" stroke-linecap="round" stroke-linejoin="round"/>
</mask>
<g mask="url(#mask0_29_124)">
<path d="M0 0H45.2829V48H0V0Z" fill="#FF8A00"/>
</g>
</svg>
