<?xml version="1.0" ?><svg height="256" viewBox="0 0 256 256" width="256" xmlns="http://www.w3.org/2000/svg"><title/><g id="weight-body-scales-control"><g><path d="M243.456,103a12.014,12.014,0,0,0-16.86,1.95L216,118.31V56a32.043,32.043,0,0,0-32-32H40A32.036,32.036,0,0,0,8,56V200a32.036,32.036,0,0,0,32,32H184a32.043,32.043,0,0,0,32-32V156.96l29.411-37.11A12.011,12.011,0,0,0,243.456,103ZM194,212a8,8,0,1,1,8-8A8.011,8.011,0,0,1,194,212ZM58,48a2.006,2.006,0,0,1,2-2H164a2.006,2.006,0,0,1,2,2V78a2.006,2.006,0,0,1-2,2H60a2.006,2.006,0,0,1-2-2Zm144,4a8,8,0,1,1-8-8A8.011,8.011,0,0,1,202,52ZM22,204a8,8,0,1,1,8,8A8.011,8.011,0,0,1,22,204ZM30,60a8,8,0,1,1,8-8A8.011,8.011,0,0,1,30,60Zm70,168V198a12,12,0,0,1,24,0v30ZM242.276,117.37l-29.931,37.78-20.47,25.82a7.941,7.941,0,0,1-6.19,3.03h-.08a7.969,7.969,0,0,1-6.19-2.93l-21.6-26.4a8,8,0,0,1,6.17-13.07,7.619,7.619,0,0,1,.82.04,7.914,7.914,0,0,1,5.39,2.9l13.74,16.78a2.074,2.074,0,0,0,1.56.74,2.013,2.013,0,0,0,1.55-.76l28.5-35.97.12-.15,14.07-17.75a8,8,0,0,1,12.54,9.94Z"/><path d="M146,74h6a4,4,0,0,0,4-4V56a4,4,0,0,0-4-4h-6a4,4,0,0,0-4,4V70A4,4,0,0,0,146,74Zm0-18h6V70h-6Z"/><circle cx="138.003" cy="72" r="2"/><path d="M124,74h6a4,4,0,0,0,4-4V56a4,4,0,0,0-4-4h-6a4,4,0,0,0-4,4V70A4,4,0,0,0,124,74Zm0-18h6V70h-6Z"/></g></g></svg>