<svg width="47" height="47" viewBox="0 0 47 47" fill="none" xmlns="http://www.w3.org/2000/svg">
<g clip-path="url(#clip0_64_75)">
<path d="M23.5 47C25.0581 47 26.5525 46.381 27.6543 45.2793C28.756 44.1775 29.375 42.6832 29.375 41.125H17.625C17.625 42.6832 18.244 44.1775 19.3457 45.2793C20.4475 46.381 21.9419 47 23.5 47ZM23.5 5.63413L21.1588 6.10707C18.5032 6.64816 16.1161 8.09019 14.4015 10.1891C12.687 12.288 11.7503 14.9148 11.75 17.625C11.75 19.4698 11.3564 24.0787 10.4017 28.6171C9.93169 30.8702 9.29719 33.2173 8.45413 35.25H38.5459C37.7028 33.2173 37.0712 30.8731 36.5983 28.6171C35.6436 24.0787 35.25 19.4698 35.25 17.625C35.249 14.9153 34.312 12.2892 32.5975 10.1909C30.883 8.09259 28.4963 6.65099 25.8412 6.11001L23.5 5.63119V5.63413ZM41.7713 35.25C42.4263 36.5631 43.1842 37.6029 44.0625 38.1875H2.9375C3.81581 37.6029 4.57369 36.5631 5.22875 35.25C7.8725 29.9625 8.8125 20.21 8.8125 17.625C8.8125 10.5163 13.865 4.58251 20.5772 3.22832C20.5362 2.81987 20.5813 2.40736 20.7095 2.0174C20.8377 1.62744 21.0462 1.26868 21.3216 0.964265C21.597 0.659847 21.9331 0.416528 22.3084 0.250001C22.6836 0.0834744 23.0895 -0.00256348 23.5 -0.00256348C23.9105 -0.00256348 24.3164 0.0834744 24.6917 0.250001C25.0669 0.416528 25.403 0.659847 25.6784 0.964265C25.9538 1.26868 26.1623 1.62744 26.2905 2.0174C26.4187 2.40736 26.4638 2.81987 26.4228 3.22832C29.743 3.90365 32.7278 5.70569 34.8718 8.32929C37.0157 10.9529 38.1871 14.2368 38.1875 17.625C38.1875 20.21 39.1275 29.9625 41.7713 35.25Z" fill="#007A64"/>
</g>
<defs>
<clipPath id="clip0_64_75">
<rect width="47" height="47" fill="white"/>
</clipPath>
</defs>
</svg>
