<svg width="46" height="48" viewBox="0 0 46 48" fill="none" xmlns="http://www.w3.org/2000/svg">
<mask id="mask0_64_108" style="mask-type:alpha" maskUnits="userSpaceOnUse" x="3" y="4" width="39" height="40">
<path d="M22.6415 20C23.5087 20 24.3674 19.8189 25.1686 19.4672C25.9698 19.1154 26.6978 18.5998 27.3111 17.9497C27.9243 17.2997 28.4107 16.5281 28.7426 15.6788C29.0744 14.8295 29.2452 13.9193 29.2452 13C29.2452 12.0807 29.0744 11.1705 28.7426 10.3212C28.4107 9.47194 27.9243 8.70026 27.3111 8.05025C26.6978 7.40024 25.9698 6.88463 25.1686 6.53284C24.3674 6.18106 23.5087 6 22.6415 6C20.8901 6 19.2104 6.7375 17.9719 8.05025C16.7335 9.36301 16.0377 11.1435 16.0377 13C16.0377 14.8565 16.7335 16.637 17.9719 17.9497C19.2104 19.2625 20.8901 20 22.6415 20V20ZM5.6604 40.8V42H39.6226V40.8C39.6226 36.32 39.6226 34.08 38.7999 32.368C38.0764 30.8628 36.9219 29.639 35.5018 28.872C33.8867 28 31.7735 28 27.5471 28H17.7358C13.5094 28 11.3962 28 9.78115 28.872C8.36112 29.639 7.2066 30.8628 6.48304 32.368C5.6604 34.08 5.6604 36.32 5.6604 40.8Z" fill="white" stroke="white" stroke-width="4" stroke-linecap="round" stroke-linejoin="round"/>
</mask>
<g mask="url(#mask0_64_108)">
<path d="M0 0H45.2829V48H0V0Z" fill="#007A64"/>
</g>
</svg>
